<svg id="Layer_1" data-name="Layer 1" xmlns="http://www.w3.org/2000/svg" viewBox="0 0 1200 1200"><defs><style>.cls-1{fill:#e9e8e8;}.cls-10,.cls-14,.cls-2{fill:#fff;}.cls-11,.cls-12,.cls-13,.cls-3,.cls-7{fill:none;}.cls-10,.cls-13,.cls-14,.cls-3,.cls-7{stroke:#1d252e;}.cls-10,.cls-11,.cls-12,.cls-13,.cls-14,.cls-3,.cls-7{stroke-linecap:round;stroke-linejoin:round;}.cls-3{stroke-width:2px;}.cls-4{fill:#1d252e;}.cls-5{fill:#9dd5c0;}.cls-6{fill:#9ed4c0;}.cls-8,.cls-9{fill:#1d252f;}.cls-9{font-size:10.39px;font-family:ProximaNova-Light, Proxima Nova;font-weight:300;}.cls-10,.cls-11,.cls-12,.cls-13{stroke-width:4px;}.cls-11,.cls-12{stroke:#000;}.cls-12{stroke-dasharray:8.08 8.08;}.cls-14{stroke-width:6px;}</style></defs><path id="Path-141" class="cls-1" d="M870.65,517.93C799.59,431.92,650.37,208.77,459,298S53.71,918.52,472.66,919.13c157.39.23,384.06,20.78,450.47-39.35C1033.5,779.87,915,571.62,870.65,517.93Z"/><path class="cls-2" d="M498.67,504.31c-8.24,6.11-11.79,15.76-12.28,20.14s-1,7.76-3.56,11.89c-6.25,7.4-22.46,27.75-31.92,40-1.23-3.27-2.38-7.78-2.38-7.78s-23,13-23,16.39c0,2.79,5.25,10.31,7.63,13.53l0,0q.51.66,1.05,1.32h0A27.1,27.1,0,0,0,451.31,610c4.7,1.38,26.72-22.29,46-70.74,8.6-12.12,12.91-11.64,16.76-28.76S506.9,498.21,498.67,504.31Z"/><polygon id="Path-36" class="cls-2" points="348.57 525.85 360.59 522.56 358.5 506.04 353.69 501.27 351.09 493.97 345.34 493.83 342.02 488.71 343.1 482.86 344.75 481 341.54 471.24 379.29 465.3 381.61 466.35 387.45 475.8 391.06 486.74 389.47 496.46 385.6 502.67 379.69 507.23 377.33 507.18 379.75 523.83 396.26 523.5 380.69 540.38 347.96 540.44 348.57 525.85"/><path id="Path-32" class="cls-2" d="M330.81,968.28v12.89c0,2.9-3.77,31.83-1.19,32.56s76,7.13,66.89,0-38-27.73-38-33.57c-1.76-2.68-.7-13.67-.7-13.67Z"/><path id="Path-20" class="cls-3" d="M353.31,524.23c3-.73,5.38-1.28,7.28-1.67L358.5,506a19.74,19.74,0,0,1-4.8-4.77,28.65,28.65,0,0,1-2.56-7.27q-9.25.53-9.08-7t8.59-6.5"/><path id="Path-21" class="cls-3" d="M384.56,471.67q7.24,10.18,6.38,17.83-2.67,15.47-14.31,18.3l3.12,16,8.32-.23"/><path id="Path-31" class="cls-4" d="M327.53,687.16l3,141.68-8,135.08q22.92,4.05,34.22,4t16.12-4L379.38,834l1.33-94.63c3.64-.17,9.44-2.21,12.93-3.83l15.42,95L401.87,963.2q17.85,2.53,26.7,2.4a82.23,82.23,0,0,0,19.94-3.15l8.25-138.85L434.87,684.42Z"/><path id="Path-22" class="cls-3" d="M343.77,478a12.64,12.64,0,0,1,7.72-1.41"/><path id="Path-23" class="cls-4" d="M342.32,475.41a25.94,25.94,0,0,1,10.46-2.49c.29-1.32.66-2.8,1.11-4.43q9.41,10.26,27.85-1.33c18.43-11.6-4.07-43.12-22.45-29.63q-9.92,7.47-11,12.26-7.89,1-9.43,5.51Q335.58,461.47,342.32,475.41Z"/><path id="Path-24" class="cls-5" d="M348,524.83q10.65,14.05,24.74,11.62c14.09-2.44,18.48-6.22,21-13.2,8.78-2.34,24.67,6.13,31.14,11.35C445.64,552.22,449.62,570,449.62,570l-21.17,14.88c1.59,15.92.63,5.4,3.86,41.37.79,15.91,4.1,34.4,6.4,59.27q-39.21,12.77-59.54,12.81t-56.1-12.55l7.63-84.93s.43,1.94-2.59,5.1c-20.29-5-30.65-21.63-30.6-29s16.4-31.38,20-34.52S328.15,528.47,348,524.83Z"/><path id="Path-32-2" data-name="Path-32" class="cls-3" d="M331.39,970.69l-1.77,43c2.58.73,76,7.13,66.89,0s-38-27.73-38-33.57l.42-7.35"/><path id="Path-32-3" data-name="Path-32" class="cls-3" d="M413.3,970.69l-1.77,43c2.58.73,76,7.13,66.89,0s-38-27.73-38-33.57l.41-7.35"/><path id="Path-30" class="cls-2" d="M325.36,605.48l-3.11,5.92s26.67,21.49,39.09,25.11c1.14-.12,30.18-17.53,36.54-.06S373,658.31,366.06,657c-27.77-5.33-77.38-34.89-77.67-44.3,5.35-11.42,10.7-29.55,10.7-29.55C306,593.11,314.1,602.09,325.36,605.48Z"/><path id="Path-30-2" data-name="Path-30" class="cls-3" d="M324.23,608l-2,3.38s26.09,22.41,39.09,25.11c.7.16,30.18-17.53,36.54-.06S372.47,658,366.06,657c-25.11-4-77.38-34.89-77.67-44.3,3.54-9.75,9.73-26.84,9.73-26.84"/><path class="cls-3" d="M433.08,598.49c3.79,5,9.18,10,18.23,11.54,13.18.69,31.35-36.13,46-70.74,8.6-12.12,12.91-11.64,16.76-28.76s-7.18-12.32-15.41-6.22-11.79,15.76-12.28,20.14-1,7.76-3.56,11.89c-7.32,8.66-28.3,35.09-36.09,45.44"/><line class="cls-3" x1="449.75" y1="571.98" x2="450.88" y2="576.37"/><rect class="cls-6" x="487.93" y="472.61" width="26.4" height="48.49" rx="0.91" transform="translate(134.67 -106.22) rotate(13.96)"/><path class="cls-7" d="M503.44,519.14l-14.77-3.67a3.32,3.32,0,0,0-2.42-4L494.82,477a3.31,3.31,0,0,0,4-2.42l14.78,3.68a3.31,3.31,0,0,0,2.41,4l-8.56,34.47A3.31,3.31,0,0,0,503.44,519.14Z"/><circle class="cls-4" cx="501.14" cy="496.86" r="5.3"/><circle class="cls-4" cx="516.27" cy="479.21" r="1.35"/><circle class="cls-4" cx="496.03" cy="474.18" r="1.35"/><circle class="cls-4" cx="506.19" cy="519.76" r="1.35"/><circle class="cls-4" cx="485.95" cy="514.73" r="1.35"/><rect class="cls-6" x="496.25" y="477.05" width="26.4" height="48.49" rx="0.91" transform="translate(399.53 -204.93) rotate(36.62)"/><path class="cls-7" d="M503,522.75l-12.22-9.08a3.31,3.31,0,0,0-.68-4.64l21.18-28.51a3.31,3.31,0,0,0,4.64-.68l12.22,9.08a3.32,3.32,0,0,0,.68,4.64l-21.18,28.5A3.32,3.32,0,0,0,503,522.75Z"/><circle class="cls-4" cx="509.45" cy="501.29" r="5.3"/><circle class="cls-4" cx="530.22" cy="490.83" r="1.35"/><circle class="cls-4" cx="513.47" cy="478.39" r="1.35"/><circle class="cls-4" cx="505.29" cy="524.38" r="1.35"/><circle class="cls-4" cx="488.55" cy="511.94" r="1.35"/><rect class="cls-6" x="503.45" y="487.08" width="26.4" height="48.49" rx="0.91" transform="translate(779.03 -166.57) rotate(66.46)"/><path class="cls-7" d="M500.38,526.72l-6.08-14A3.32,3.32,0,0,0,496,508.4l32.56-14.18a3.31,3.31,0,0,0,4.36,1.71l6.08,14a3.31,3.31,0,0,0-1.71,4.36l-32.56,14.19A3.31,3.31,0,0,0,500.38,526.72Z"/><circle class="cls-4" cx="516.65" cy="511.33" r="5.3"/><circle class="cls-4" cx="539.87" cy="512.59" r="1.35"/><circle class="cls-4" cx="531.54" cy="493.46" r="1.35"/><circle class="cls-4" cx="501.56" cy="529.28" r="1.35"/><circle class="cls-4" cx="493.23" cy="510.16" r="1.35"/><path id="Path-27" class="cls-2" d="M490.39,519.51q7.17-8.14,9-3.57T490,536.76"/><path id="Path-27-2" data-name="Path-27" class="cls-3" d="M490.39,519.51q7.17-8.14,9-3.57T490,536.76"/><path id="Path-24-2" data-name="Path-24" class="cls-5" d="M348,524.83c-19.83,3.64-26.88,14.45-30.47,17.59s-20.12,27-20.17,34.38,8.32,24.77,30.69,29.09c8.66-7,30.52-61.08,32.3-60.61Z"/><line id="Path-29" class="cls-3" x1="330.15" y1="613.44" x2="332.07" y2="594.02"/><path class="cls-8" d="M621.78,390.11v-123a64,64,0,0,1,63.92-63.93H971.28a64,64,0,0,1,63.93,63.93v50h2.43v43h-2.43v10h2.43V438h-2.43v2.54h2.43v67.84h-2.43v444.8a64,64,0,0,1-63.93,63.93H685.7a64,64,0,0,1-63.92-63.93V489h-2.44V390.11Z"/><path class="cls-6" d="M1009.07,262.59V962.13c0,16.12-13,29.31-29.23,30.13-.52,0-1.06,0-1.59,0H678.74c-.54,0-1.06,0-1.59,0-16.25-.82-29.22-14-29.22-30.13V262.59c0-16.63,13.82-30.16,30.81-30.16h51.84v6.15a20.44,20.44,0,0,0,20.66,20.2h154.5a20.45,20.45,0,0,0,20.68-20.2v-6.15h51.83C995.24,232.43,1009.07,246,1009.07,262.59Z"/><path class="cls-8" d="M1009.07,262.59V443.78H647.93V262.59c0-16.63,13.82-30.16,30.81-30.16h51.84v6.15a20.44,20.44,0,0,0,20.66,20.2h154.5a20.45,20.45,0,0,0,20.68-20.2v-6.15h51.83C995.24,232.43,1009.07,246,1009.07,262.59Z"/><rect class="cls-2" x="671.49" y="244.74" width="35.24" height="11.64" rx="4.11"/><text class="cls-9" transform="translate(677.8 253.75)">10:00</text><rect class="cls-2" x="944.53" y="251.92" width="2.14" height="4.98"/><rect class="cls-2" x="948.06" y="250.59" width="2.14" height="6.3"/><rect class="cls-2" x="951.6" y="249.32" width="2.14" height="7.58"/><rect class="cls-2" x="955.13" y="247.39" width="2.14" height="9.51"/><path class="cls-2" d="M976.81,248.49v6.57a.27.27,0,0,1-.27.27h-3.8a.28.28,0,0,1-.24-.15l-3.35-6.57a.27.27,0,0,1,.24-.39h7.15A.27.27,0,0,1,976.81,248.49ZM978,246.8h-14.4a.27.27,0,0,0-.27.26v9.43a.27.27,0,0,0,.27.26H978a.27.27,0,0,0,.27-.26v-9.43A.27.27,0,0,0,978,246.8Zm1.25,7.82h0a1.15,1.15,0,0,0,1.15-1.16v-3.37a1.15,1.15,0,0,0-1.15-1.16h0a.27.27,0,0,0-.27.27v5.15A.27.27,0,0,0,979.21,254.62Z"/><circle class="cls-2" cx="777.88" cy="237.25" r="4.82"/><rect class="cls-2" x="792.04" y="232.43" width="86.69" height="9.64" rx="4.82" transform="translate(1670.76 474.5) rotate(180)"/><rect class="cls-10" x="670" y="891.65" width="316.83" height="71.6" rx="18.19"/><path class="cls-2" d="M986.83,579.08V725.39a31,31,0,0,1-31,31H701a31,31,0,0,1-31-31V579.08a31,31,0,0,1,31-31H955.81A31,31,0,0,1,986.83,579.08Z"/><path class="cls-6" d="M986.83,579.08v83.09H670V579.08a31,31,0,0,1,31-31H955.81A31,31,0,0,1,986.83,579.08Z"/><rect class="cls-2" x="670" y="370.48" width="316.83" height="129.16" rx="18.19"/><path class="cls-10" d="M986.83,454.36v27.09a18.19,18.19,0,0,1-18.19,18.19H688.19A18.19,18.19,0,0,1,670,481.45v-28.6"/><path class="cls-8" d="M703.11,439.38v1.37c0,3.08.83,5.21,3.78,5.21s3.72-1.87,3.72-5.42c0-3.7-.82-5.78-4.88-8.26-5-3.06-7.55-5.59-7.55-11.7,0-6.3,3-9.64,8.61-9.64,7.48,0,8.71,4.57,8.71,9.27v1.05h-5.34v-1c0-2.64-.5-5-3.32-5-2.15,0-3.34,1.41-3.3,4.66s1,4.76,5.06,7.31c5.47,3.39,7.43,6.23,7.43,12.63,0,7-2.64,10.58-9.37,10.56-7,0-8.9-4.56-8.9-10v-1.05Zm1.74-26.72v-4.89h4.29v4.89Zm0,41.93v-5.2h4.29v5.2Z"/><path class="cls-8" d="M736.07,415.72h-9.78c-.2,3.33-.54,7.93-.79,10.48a5.81,5.81,0,0,1,4.81-2c5.26,0,7.18,3.87,7.18,10.45V439c0,6.78-1.9,11.87-9.2,11.87-6.67,0-8.85-4.35-8.85-9.68v-.8h5.41v1.26c0,2.26.71,4.72,3.44,4.72,3,0,3.58-2.3,3.58-6.61v-4.84c0-4-.64-6.07-3.43-6.07-2.32,0-3.18,1.34-3.69,4l-4.84-.52c.58-5.55,1.35-16.43,1.64-21.34h15.1Z"/><path class="cls-8" d="M738.42,456.16a44.25,44.25,0,0,0,3.05-14.54h5a32.66,32.66,0,0,1-4,14.54Z"/><path class="cls-8" d="M767.41,420.72v19.45c0,6.28-2.12,10.65-9,10.65-6.39,0-8.67-4.29-8.67-10.57V421.08c0-7.09,3.17-10.64,9-10.64S767.41,413.91,767.41,420.72Zm-12.33-.23v20.3c0,3.35,1,5.07,3.5,5.07s3.43-1.59,3.43-5.24V420.38c0-3.36-1.14-5-3.45-5S755.08,416.82,755.08,420.49Z"/><path class="cls-8" d="M770.86,450.34v-.68c0-7,2.94-11.77,7.23-18,3.24-4.62,4.27-6.22,4.27-10.61S781.8,415,779.3,415c-2.29,0-3.17,1.75-3.17,5v2h-5v-2.13c0-4.44,1.41-9.4,8.45-9.4,6.53,0,8.28,4.3,8.28,10.34,0,6.23-1.89,8.78-5.11,13.22s-5.5,8.38-5.8,11.64h11.71l-.75,4.7Z"/><path class="cls-8" d="M809.19,420.72v19.45c0,6.28-2.12,10.65-9,10.65-6.39,0-8.66-4.29-8.66-10.57V421.08c0-7.09,3.17-10.64,9-10.64S809.19,413.91,809.19,420.72Zm-12.33-.23v20.3c0,3.35,1,5.07,3.5,5.07s3.43-1.59,3.43-5.24V420.38c0-3.36-1.14-5-3.44-5S796.86,416.82,796.86,420.49Z"/><ellipse class="cls-6" cx="937.04" cy="432.81" rx="26.42" ry="24.6"/><path class="cls-8" d="M938.74,422.42v8h7.47v3.23h-7.47v8.09h-3.33v-8.09h-7.57v-3.23h7.57v-8Z"/><path class="cls-11" d="M677.19,600.33l15.36-.49,14-19.64a15.75,15.75,0,0,1,18.7,1.81l24.57,22.22a16.72,16.72,0,0,0,1.39,1.13l15.35,11a15.75,15.75,0,0,0,20-1.4l10.62-10.12L811.49,592a15.76,15.76,0,0,1,20.26-.68l13,10.2a15.78,15.78,0,0,0,9.72,3.35h12.63a15.83,15.83,0,0,1,8.58,2.54l31.61,20.52h0a15.76,15.76,0,0,0,19.59-3.07L940.26,610a15.76,15.76,0,0,1,11.69-5.2h29.1"/><line class="cls-11" x1="677.73" y1="635.76" x2="681.73" y2="635.72"/><path class="cls-12" d="M689.81,635.63l10.25-.11a14,14,0,0,0,7.56-6.18c4.07-7,12.24-19.66,17.67-19.66H748a29.58,29.58,0,0,0,14.13-3.59h0a29.59,29.59,0,0,1,31,1.69l1.38,1a31.83,31.83,0,0,1,2.6,2l6.47,5.66a29.6,29.6,0,0,0,39.37-.36l6.16-5.59c.59-.53,1.15-1.09,1.7-1.67l3-3.26a29.6,29.6,0,0,1,39.52-3.3l1.81,1.38a29.61,29.61,0,0,0,17.93,6h4.72a29.6,29.6,0,0,0,16.34-4.92l38.35-19.85"/><line class="cls-11" x1="976.07" y1="583.05" x2="979.62" y2="581.22"/><path class="cls-8" d="M709.29,731.77v1c0,2.13.58,3.6,2.62,3.6s2.58-1.29,2.58-3.74-.57-4-3.38-5.73c-3.43-2.11-5.23-3.87-5.23-8.1s2.06-6.67,6-6.67c5.17,0,6,3.16,6,6.42v.72h-3.7v-.68c0-1.83-.35-3.49-2.3-3.49-1.49,0-2.31,1-2.28,3.23s.66,3.29,3.5,5.06c3.78,2.35,5.14,4.31,5.14,8.75,0,4.82-1.82,7.32-6.49,7.31-4.82,0-6.16-3.16-6.16-6.9v-.73Zm1.21-18.5v-3.39h3v3.39Zm0,29v-3.6h3v3.6Z"/><path class="cls-8" d="M722.56,739.36V716.42a16.57,16.57,0,0,1-2.92.42V714a6.59,6.59,0,0,0,3.94-2h2.74v27.45Z"/><path class="cls-8" d="M729.42,739.36v-.47c0-4.82,2-8.15,5-12.44,2.25-3.2,3-4.31,3-7.34s-.39-4.22-2.12-4.22-2.19,1.21-2.19,3.46v1.36h-3.49v-1.47c0-3.08,1-6.51,5.85-6.51,4.52,0,5.74,3,5.74,7.16s-1.31,6.08-3.54,9.16-3.81,5.8-4,8.05h8.11l-.52,3.26Z"/><path class="cls-8" d="M742.89,743.39A30.77,30.77,0,0,0,745,733.32h3.44a22.58,22.58,0,0,1-2.75,10.07Z"/><path class="cls-8" d="M757.69,739.36v-7.05H750v-2.78l6.18-17.47h5V729.2h2.09l-.3,3.11h-1.79v7.05Zm0-15.73c0-2.67.1-5.37.16-8h0c-1.32,4.59-2.76,9.06-4.23,13.6h4.11Z"/><path class="cls-8" d="M766.73,739.36V716.42a16.7,16.7,0,0,1-2.92.42V714a6.62,6.62,0,0,0,3.94-2h2.74v27.45Z"/><path class="cls-8" d="M773.89,718.9v-.79c0-2.86.88-6.38,5.72-6.38,4.16,0,5.57,2.63,5.57,6.37v1c0,3.13-1,4.6-2.62,5.25v0c2,.69,3.26,2.18,3.26,5.54v2.26c0,4.35-1.35,7.48-6.25,7.48-4.43,0-6-2.49-6-6.32v-.85H777v.82c0,1.69.56,3.25,2.52,3.25s2.52-1.45,2.52-3.89v-2.68c0-2.85-1-3.85-3.33-3.85h-1.16V723h1.13c2,0,2.82-.81,2.82-3.41v-1.48c0-1.78-.33-3.2-2.08-3.2s-2.16,1.41-2.16,3v1Z"/><path d="M733.64,678.3c0-2,0-4.32.06-5.58h0c-.27,1.94-1,6.7-1.54,10h-1.45c-.4-2.93-1.15-8-1.41-10h0c0,1.31.09,3.88.09,5.83v4.19H728V671.4h2.26c.51,3.08,1.09,6.7,1.24,8.22h0c.18-1.52.9-5.32,1.42-8.22h2.2v11.33h-1.45Z"/><path d="M741.7,674.31v5.47c0,2.1-.88,3.11-2.7,3.11s-2.56-1.08-2.56-3.08v-5.5c0-2.07,1-3.07,2.65-3.07S741.7,672.3,741.7,674.31Zm-3.71-.12V680c0,1.08.39,1.55,1.07,1.55s1.09-.45,1.09-1.59v-5.75c0-1-.34-1.56-1.09-1.56S738,673.12,738,674.19Z"/><path d="M743.07,682.73V671.4h1.78c.52,1.81,2,7.55,2.11,8.29h0c-.07-1.45-.08-3.05-.08-4.9V671.4h1.41v11.33H746.6c-.46-1.68-2-7.9-2.18-8.56h0c.08,1.37.08,3,.08,5.07v3.49Z"/><path d="M751,672.81h-1.82V671.4h5.17v1.41h-1.83v9.92H751Z"/><path d="M755.12,671.4h1.52V676h2.08V671.4h1.52v11.33h-1.52v-5.36h-2.08v5.36h-1.52Z"/><path d="M761.84,671.4h1.52v10h2.85l-.14,1.36h-4.23Z"/><path d="M767.25,682.73v-4.1a1,1,0,0,0,0-.35l-2.1-6.88h1.67c.5,1.93,1.09,4.18,1.27,5.33h0c.23-1.23.81-3.46,1.27-5.33H771l-2.14,7a1.4,1.4,0,0,0,0,.39v3.94Z"/><path class="cls-2" d="M782.58,308.24V338.4h-4.05V308.24Z"/><path class="cls-2" d="M786.84,338.4V308.24h4.73c1.38,4.82,5.23,20.09,5.62,22.06h.06c-.2-3.86-.22-8.1-.22-13v-9h3.76V338.4h-4.56c-1.23-4.46-5.37-21-5.79-22.78h0c.21,3.65.23,8.05.23,13.48v9.3Z"/><path class="cls-2" d="M817.48,329.54v1.11c0,3.61-.62,8.18-6.61,8.18-5.43,0-6.49-3.58-6.49-8.11V315.46c0-4.73,2.09-7.64,6.55-7.64,5.41,0,6.42,3.68,6.42,7.77v1.27h-4.07v-1.69c0-2.17-.43-3.66-2.37-3.66s-2.41,1.39-2.41,3.7V331c0,2.41.5,4.13,2.48,4.13s2.4-1.62,2.4-4.12v-1.51Z"/><path class="cls-2" d="M834.17,316v14.55c0,5.58-2.34,8.28-7.19,8.28s-6.8-2.88-6.8-8.21V316c0-5.5,2.66-8.16,7.06-8.16S834.17,310.63,834.17,316Zm-9.87-.33V331c0,2.88,1,4.13,2.87,4.13s2.88-1.18,2.88-4.22v-15.3c0-2.73-.89-4.14-2.9-4.14S824.3,312.81,824.3,315.67Z"/><path class="cls-2" d="M852.91,326.61c0-5.3.07-11.5.16-14.86h0c-.72,5.16-2.65,17.82-4.09,26.65h-3.86c-1.08-7.8-3.06-21.22-3.76-26.68h-.09c.09,3.51.24,10.34.24,15.52V338.4h-3.7V308.24h6c1.37,8.2,2.9,17.82,3.31,21.89h0c.48-4.06,2.4-14.17,3.79-21.89h5.84V338.4h-3.87Z"/><path class="cls-2" d="M871.72,324.28H865v10.41h7.65l-.52,3.71H861V308.24H872.1V312H865v8.56h6.68Z"/><path class="cls-8" d="M884.42,731.77v1c0,2.13.58,3.6,2.62,3.6s2.58-1.29,2.58-3.74-.57-4-3.38-5.73c-3.44-2.11-5.23-3.87-5.23-8.1s2.06-6.67,6-6.67c5.17,0,6,3.16,6,6.42v.72H889.3v-.68c0-1.83-.34-3.49-2.3-3.49-1.48,0-2.3,1-2.27,3.23s.66,3.29,3.5,5.06c3.78,2.35,5.14,4.31,5.14,8.75,0,4.82-1.83,7.32-6.49,7.31-4.82,0-6.16-3.16-6.16-6.9v-.73Zm1.21-18.5v-3.39h3v3.39Zm0,29v-3.6h3v3.6Z"/><path class="cls-8" d="M906.58,712.06v2.84a71.89,71.89,0,0,0-7,24.46h-3.84a71.42,71.42,0,0,1,7-24h-8v-3.33Z"/><path class="cls-8" d="M902.57,743.39a30.77,30.77,0,0,0,2.12-10.07h3.44a22.45,22.45,0,0,1-2.76,10.07Z"/><path class="cls-8" d="M910.9,718.9v-.79c0-2.86.87-6.38,5.72-6.38,4.16,0,5.56,2.63,5.56,6.37v1c0,3.13-1,4.6-2.61,5.25v0c2,.69,3.26,2.18,3.26,5.54v2.26c0,4.35-1.36,7.48-6.25,7.48-4.43,0-6-2.49-6-6.32v-.85H914v.82c0,1.69.56,3.25,2.52,3.25s2.52-1.45,2.52-3.89v-2.68c0-2.85-1-3.85-3.33-3.85h-1.17V723h1.14c2,0,2.82-.81,2.82-3.41v-1.48c0-1.78-.34-3.2-2.08-3.2s-2.17,1.41-2.17,3v1Z"/><path class="cls-8" d="M933.73,718.25v-.35c0-1.21-.24-3-2.16-3s-2.44,1.38-2.44,4.52v3.83a4.07,4.07,0,0,1,3.78-2c3.45,0,4.73,2.73,4.73,6.3v4.71c0,4.19-1.29,7.43-6.16,7.43-5.08,0-6.06-3.67-6.06-7.51V719.83c0-4.65,1.24-8.1,6.16-8.1s5.71,3.67,5.71,6.33v.19Zm.18,14.56v-4.7c0-2.11-.45-3.53-2.28-3.53s-2.5,1.48-2.5,3.94v4.29c0,2,.44,3.78,2.4,3.78C933.3,736.59,933.91,735.27,933.91,732.81Z"/><path class="cls-8" d="M942,739.36V716.42a16.7,16.7,0,0,1-2.92.42V714a6.62,6.62,0,0,0,3.94-2h2.74v27.45Z"/><path d="M900.4,682.73l-1.56-11.33h1.62c.3,2.58.74,6.76.83,8.75h0c.21-2.16.81-6.18,1.16-8.75H904c.36,2.62.95,6.38,1.15,8.68h0c.13-2.1.57-6,.87-8.68h1.54l-1.69,11.33h-1.58c-.34-2.58-.89-6.22-1.12-8.36h0c-.25,2.24-.82,5.84-1.18,8.36Z"/><path d="M912.63,677.42h-2.52v3.92H913l-.2,1.39h-4.2V671.4h4.18v1.41h-2.66V676h2.52Z"/><path d="M917.91,677.42h-2.52v3.92h2.88l-.2,1.39h-4.2V671.4h4.18v1.41h-2.66V676h2.52Z"/><path d="M919.16,671.4h1.5v5.27h0c.45-1.1,1.52-3.66,2.19-5.27h1.69l-2.11,4.44,2.26,6.89h-1.65l-1.64-5.3-.76,1.55v3.75h-1.5Z"/><path d="M925.36,671.4h1.52v10h2.85l-.14,1.36h-4.23Z"/><path d="M930.77,682.73v-4.1a1,1,0,0,0-.06-.35l-2.1-6.88h1.68c.5,1.93,1.09,4.18,1.27,5.33h0c.22-1.23.81-3.46,1.27-5.33h1.61l-2.13,7a1.4,1.4,0,0,0,0,.39v3.94Z"/><path class="cls-13" d="M986.83,579.08V725.39a31,31,0,0,1-31,31H701a31,31,0,0,1-31-31V579.08a31,31,0,0,1,31-31H955.81A31,31,0,0,1,986.83,579.08Z"/><line class="cls-13" x1="670.8" y1="692.48" x2="983.23" y2="692.48"/><line class="cls-13" x1="827.39" y1="757.01" x2="827.39" y2="663.2"/><rect class="cls-10" x="670" y="806.67" width="316.83" height="71.6" rx="18.19"/><path class="cls-8" d="M903.16,847.29v.87c0,2,.54,3.33,2.42,3.33S908,850.3,908,848s-.52-3.7-3.12-5.29c-3.17-2-4.83-3.58-4.83-7.48s1.9-6.17,5.51-6.17c4.78,0,5.58,2.92,5.58,5.93v.67h-3.43v-.63c0-1.69-.31-3.22-2.12-3.22-1.37,0-2.13.9-2.11,3s.62,3,3.24,4.68c3.5,2.17,4.75,4,4.75,8.08,0,4.46-1.69,6.77-6,6.76-4.46,0-5.7-2.92-5.7-6.38v-.67Zm1.12-17.1v-3.13H907v3.13Zm0,26.83v-3.33H907V857Z"/><path class="cls-8" d="M915.42,854.3V833.1a15.7,15.7,0,0,1-2.7.39v-2.67a6.16,6.16,0,0,0,3.65-1.88h2.53V854.3Z"/><path class="cls-8" d="M920.4,858a28.58,28.58,0,0,0,2-9.3h3.18A20.8,20.8,0,0,1,923,858Z"/><path class="cls-8" d="M927.69,854.3v-.44c0-4.45,1.88-7.53,4.63-11.49,2.07-3,2.73-4,2.73-6.79s-.36-3.89-2-3.89-2,1.12-2,3.2v1.25h-3.22v-1.36c0-2.84.9-6,5.4-6,4.18,0,5.3,2.76,5.3,6.62s-1.2,5.62-3.27,8.46-3.52,5.37-3.71,7.45h7.49l-.47,3Z"/><path class="cls-8" d="M952.22,835.35v12.44c0,4-1.36,6.82-5.78,6.82-4.09,0-5.55-2.75-5.55-6.77V835.58c0-4.54,2-6.82,5.74-6.82S952.22,831,952.22,835.35Zm-7.89-.16v13c0,2.15.65,3.25,2.24,3.25s2.19-1,2.19-3.35v-13c0-2.14-.73-3.18-2.2-3.18S944.33,832.85,944.33,835.19Z"/><path class="cls-8" d="M966.11,835.35v12.44c0,4-1.36,6.82-5.78,6.82-4.09,0-5.55-2.75-5.55-6.77V835.58c0-4.54,2-6.82,5.74-6.82S966.11,831,966.11,835.35Zm-7.89-.16v13c0,2.15.65,3.25,2.24,3.25s2.19-1,2.19-3.35v-13c0-2.14-.73-3.18-2.2-3.18S958.22,832.85,958.22,835.19Z"/><circle class="cls-6" cx="705.32" cy="842.87" r="19.12"/><path class="cls-4" d="M724.43,842.87a19.12,19.12,0,1,1-19.94-19.09v19.88l18.34-8.46A19,19,0,0,1,724.43,842.87Z"/><line class="cls-14" x1="740.59" y1="835.09" x2="853.66" y2="835.09"/><line class="cls-14" x1="740.59" y1="850.65" x2="797.53" y2="850.65"/><path class="cls-8" d="M903.16,932.84v.87c0,2,.54,3.33,2.42,3.33s2.38-1.19,2.38-3.46-.52-3.7-3.12-5.29c-3.17-2-4.83-3.58-4.83-7.49s1.9-6.17,5.51-6.17c4.78,0,5.58,2.93,5.58,5.94v.67h-3.43v-.63c0-1.7-.31-3.23-2.12-3.23-1.37,0-2.13.91-2.11,3s.62,3,3.24,4.67c3.5,2.17,4.75,4,4.75,8.09,0,4.46-1.69,6.76-6,6.75-4.46,0-5.7-2.91-5.7-6.37v-.67Zm1.12-17.1V912.6H907v3.14Zm0,26.82v-3.32H907v3.32Z"/><path class="cls-8" d="M917.22,934.19v.36c0,1.74.62,2.71,2,2.71,1.65,0,2.12-1.19,2.12-4.84v-3.91a3.28,3.28,0,0,1-3.26,1.68c-3.24,0-4.49-2.43-4.49-6.06v-3.54c0-3.9,1.86-6.28,5.61-6.28s5.55,2.23,5.55,6.47V931.6c0,4.57-.44,8.55-5.57,8.55-4.37,0-5.36-2.92-5.36-5.8v-.16Zm-.2-14v3.95c0,1.64.39,3,2.07,3s2.22-1.5,2.22-3.88v-3c0-2-.56-3.07-2.14-3.07S917,918.16,917,920.23Z"/><path class="cls-8" d="M937.72,917.69h-6.26c-.13,2.13-.35,5.08-.51,6.71a3.7,3.7,0,0,1,3.08-1.28c3.37,0,4.6,2.47,4.6,6.69v2.75c0,4.33-1.22,7.59-5.89,7.59-4.27,0-5.66-2.78-5.66-6.19v-.52h3.46v.81c0,1.45.45,3,2.2,3,1.91,0,2.29-1.47,2.29-4.23V930c0-2.57-.41-3.89-2.2-3.89-1.48,0-2,.86-2.36,2.55l-3.09-.33c.37-3.55.86-10.52,1-13.66h9.66Z"/><path class="cls-8" d="M952.45,920.89v12.44c0,4-1.35,6.82-5.78,6.82-4.08,0-5.54-2.74-5.54-6.76V921.12c0-4.53,2-6.81,5.74-6.81S952.45,916.53,952.45,920.89Zm-7.89-.15v13c0,2.15.66,3.25,2.24,3.25s2.19-1,2.19-3.35v-13c0-2.15-.73-3.18-2.2-3.18S944.56,918.4,944.56,920.74Z"/><circle class="cls-6" cx="705.32" cy="928.42" r="19.12"/><path class="cls-4" d="M716.43,944a18.92,18.92,0,0,1-11.12,3.58,19.12,19.12,0,1,1,9.39-35.78l-9.39,16.66Z"/><line class="cls-14" x1="740.59" y1="920.63" x2="853.66" y2="920.63"/><line class="cls-14" x1="740.59" y1="936.2" x2="797.53" y2="936.2"/><path class="cls-5" d="M246.84,791.32c-5.32-6.26-17.82-21.27-18.45-31.58s3.44-33.15,14.7-32.21,5.62,5.63,9.38,6.88,14.07-12.51,22.82-.94-.31,29.08-12.51,40.34S246.84,791.32,246.84,791.32Z"/><path class="cls-4" d="M257.08,744.14c-4.15,11.89-7.15,24.54-7.09,37.21a.66.66,0,0,1-1.31,0,75.23,75.23,0,0,1,1.37-19.35,82.76,82.76,0,0,1,5.71-18.57.74.74,0,0,1,1.32.66Z"/><path class="cls-4" d="M254,750.45c1.81-2.84,4.85-4.67,7.54-6.49a16.68,16.68,0,0,1,6.08-3.39l2.43-.73a.24.24,0,0,1,.31.15c0,2-1.41,3.6-2.79,4.76s-3.05,1.47-4.57,2.06c-1.31.51-3.22,1.19-4.5,1.71a16.31,16.31,0,0,0-4.2,2.19.2.2,0,0,1-.3-.26Z"/><path class="cls-4" d="M253.44,750.53c-1.36-2.81-4.4-4.33-6.77-6.23-2.14-1.33-4.24-2.8-5.1-5.38a5.63,5.63,0,0,1-.37-2.81.24.24,0,0,1,.27-.2,28,28,0,0,1,4.23,2.52c1.26.86,2.06,2.3,3.13,3.51,2,2.46,4.78,5.14,5,8.54a.2.2,0,0,1-.4,0Z"/><path class="cls-4" d="M251.8,757.5c4.59-3,9.41-5.53,14-8.46a19.45,19.45,0,0,1,9.53-2.71.23.23,0,0,1,.19.35c-2.68,3.79-6.84,5.74-11.14,7Q258.27,756,252,757.86a.2.2,0,0,1-.16-.36Z"/><path class="cls-4" d="M251.82,757.58c0,.1.06.13-.06.27a.29.29,0,0,1-.23,0,4.17,4.17,0,0,1-.65-.29c-.4-.19-1.48-.82-1.88-1.05-1.57-.9-5.72-3.33-7.33-4.28a20.55,20.55,0,0,1-8.89-6.85.23.23,0,0,1,.15-.37c4.3-.49,7.75,1.77,10.58,4.61,1.47,1.24,2.88,2.54,4.24,3.88,1,1,2.72,2.77,3.75,3.8l.11.1,0,0s0,0-.14,0a.18.18,0,0,0-.07.14s0,0,0,.05a.21.21,0,0,1,.12-.26.2.2,0,0,1,.26.12Z"/><path class="cls-4" d="M250.85,763.14a44.56,44.56,0,0,0,6.33-1.92c1-.38,1.82-1.15,2.9-1.23a10.22,10.22,0,0,1,3.6.31.27.27,0,0,1,.21.32,4.26,4.26,0,0,1-1,1.92,5.62,5.62,0,0,1-1.47,1.22c-1.06.7-2.38.51-3.57.59a18.88,18.88,0,0,1-7-.81.21.21,0,0,1,0-.4Z"/><path class="cls-4" d="M250.69,763.47c-2.6-1.43-5.84-1.14-8.74-1.33-1.51,0-3.06.33-4.55-.1a10.48,10.48,0,0,1-4.45-2.18.24.24,0,0,1,0-.34,10.25,10.25,0,0,1,4.83-1.46c1.58-.16,3.09.53,4.63.91,3,.87,6.56,1.66,8.6,4.24a.2.2,0,0,1-.3.26Z"/><path class="cls-4" d="M250.4,768.31a21.71,21.71,0,0,1,3.61,1.8c.55.33,1.34.38,1.54,1a3.59,3.59,0,0,1,.15,1.85.8.8,0,0,0,.11.53c.14.28-.21.51-.43.61a3.3,3.3,0,0,1-2.53,0c-.74-.27-.83-1.13-1.16-1.71a22.33,22.33,0,0,1-1.58-3.73.23.23,0,0,1,.29-.28Z"/><path class="cls-4" d="M249.67,768.56c-1.46.88-2.92,1.73-4.43,2.48-.74.37-1.37,1.09-2.23,1a5,5,0,0,1-2.84-1,.32.32,0,0,1-.13-.36,4.29,4.29,0,0,1,1.86-2.48c.73-.53,1.68-.23,2.52-.29a23.56,23.56,0,0,1,5.17.23.21.21,0,0,1,.08.39Z"/><path class="cls-4" d="M186,784.07C237.6,809.75,255.5,903,259.34,955.84a2,2,0,1,1-4,.23c-3.29-51.78-20.06-144.24-70.33-169.91a1.16,1.16,0,0,1,1-2.09Z"/><path class="cls-5" d="M145.7,831c-2.39,1.5-7.7-24.86-10.76-48.7-1.72-13.31,8-38.81,22.18-47.33S180,750,187.54,754.52s18.52,3.24,26.14,8.55c11.21,7.81-1.06,31.79-14.13,35.78C155.65,817.14,155.92,824.53,145.7,831Z"/><path class="cls-4" d="M257.13,743.7c1.86,15.93,2.47,31.8,3.51,47.77,2,35.78,3.7,71.69,4.85,107.52.24,11.12.86,25,.27,36.11a2,2,0,0,1-4-.14c.08-2,.28-4,.3-6.08.2-8.53,0-21.24-.1-29.8q-1.29-65.69-4.55-131.38c-.47-7.94-.8-16-1.71-23.77a.72.72,0,0,1,.63-.85.71.71,0,0,1,.79.62Z"/><path class="cls-4" d="M294.06,750.71c-17.73,6.52-17.05,160.67-16,185,.19,4.09.26,8.32.84,12.33a2,2,0,1,1-3.93.71,127.07,127.07,0,0,1-.8-12.91c-.78-46.45.33-93,4.92-139.23,1.53-11.79,3.86-37.87,11.32-46.39a5.38,5.38,0,0,1,3.5-1.74,1.13,1.13,0,1,1,.11,2.25Z"/><path class="cls-5" d="M297.31,732.18c-9.59-6.22-27.48-10.89-28.52,12.71s4.93,25.93,18.67,36,14.78,15,19.19,18.93c4.4-10.11,9.59-18.15,14.26-33.45s3.37-34.75-9.6-43S297.31,732.18,297.31,732.18Z"/><path class="cls-4" d="M202,875.47c16.46,3,29.9,15.71,36.26,30.83,6.54,15.11,7.51,32,6.36,48.23a2,2,0,1,1-4-.33,132,132,0,0,0,.21-23.77c-1.92-23.83-14.19-47.39-39.12-53a1,1,0,1,1,.27-2Z"/><path class="cls-5" d="M161.73,833.58c-6.72,18.49-4.48,33.62,4.48,52.67s29.7,25.78,35.31,44.83c14.57-12.88,17.93-39.78,28-60.52s11.2-49.87-10.65-47.07-15.13,20.73-26.34,17.93S168.45,815.08,161.73,833.58Z"/><path class="cls-4" d="M195,849.37c-1.28,24.78,1,50.1,8.32,73.89a.65.65,0,0,1-1.24.42c-6.69-19.35-9.3-39.94-9.3-60.36a116.81,116.81,0,0,1,.76-14.2.74.74,0,1,1,1.46.25Z"/><path class="cls-4" d="M193.86,862.79c2-5.43,6.79-9.37,10.83-13.29,2-1.89,3.82-4.06,5.95-5.8,1.56-1.32,3.11-2.57,4.57-4,.54-.47.93-1,1.52-1.57a.22.22,0,0,1,.3,0,8.6,8.6,0,0,1-1.05,4.61c-2.48,5.45-8.17,8.22-12.66,11.72-3.33,2.47-6.87,4.9-9.09,8.48-.1.23-.48.08-.37-.16Z"/><path class="cls-4" d="M192.89,863c-3-4.69-8.18-7.66-12.5-11-4.78-3.14-10.22-7.42-10.35-13.68a.21.21,0,0,1,.38-.13,59.94,59.94,0,0,0,6.06,5.54c2.13,1.74,3.93,3.9,6,5.8,4,3.92,8.79,7.86,10.83,13.29a.2.2,0,0,1-.37.16Z"/><path class="cls-4" d="M193.85,877c5.5-4.91,10.93-9.93,16.18-15.09,2.58-2.56,4.87-5.43,7.53-7.9,2.29-2.24,5.65-5.14,7.49-7.77a.21.21,0,0,1,.39.1,12.4,12.4,0,0,1-1.72,5.62c-2.64,5.14-7.1,8.88-11.55,12.33a189.06,189.06,0,0,1-18.08,13c-.2.12-.43-.16-.24-.32Z"/><path class="cls-4" d="M193.67,877.05c.84,1.86-9-4-9.69-4.33-3.06-1.8-6-3.73-8.95-5.82s-6-4.07-8.32-6.87-4.61-6.12-4.78-9.91a.21.21,0,0,1,.38-.12,58.39,58.39,0,0,0,7.26,7.24c3.82,3.49,7.31,7.37,11.44,10.54A110.68,110.68,0,0,0,193.47,877s0,0-.12.08,0,.14,0,.16c-.15-.22.2-.44.34-.22Z"/><path class="cls-4" d="M195.27,888.15a52.17,52.17,0,0,0,10.95-4.06c1.7-.85,3.16-2.12,4.93-2.83a50.45,50.45,0,0,1,5.59-2,.23.23,0,0,1,.3.27c-1.25,4.35-5.53,6.62-9.64,7.52a34.69,34.69,0,0,1-12.1,1.47.2.2,0,0,1,0-.39Z"/><path class="cls-4" d="M195.21,888.53c-4.33-1-8.69-1.78-13.06-2.57-3.32-.41-6.65-.8-9.63-2.49a13.92,13.92,0,0,1-3-2,.23.23,0,0,1,0-.32,18.44,18.44,0,0,1,10.28.48c1.82.72,4.47,1.66,6.34,2.32a79.63,79.63,0,0,1,9.23,4.16.2.2,0,0,1-.15.37Z"/><path class="cls-4" d="M197.2,898.15c2.8.59,5.65.68,8.48,1.06,1.43.17,3,0,4.3.67a6.91,6.91,0,0,1,3.59,3.22.25.25,0,0,1-.13.32,14.75,14.75,0,0,1-4.51.32c-1.41-.07-2.65-.92-4-1.42-1-.37-3.05-1.19-4-1.64-.39-.22-5-2.28-3.69-2.53Z"/><path class="cls-4" d="M196.06,898.49a14.43,14.43,0,0,1-6,4.1c-1.12.46-2.19,1.21-3.4,1.13a7.33,7.33,0,0,1-3.7-1.1.27.27,0,0,1-.1-.38,6.45,6.45,0,0,1,3.07-2.45c1.06-.5,2.24-.2,3.36-.3s2.2-.23,3.3-.42a15.49,15.49,0,0,0,3.26-.89.2.2,0,0,1,.24.31Z"/><path class="cls-4" d="M295.4,739c4.39,8,7.29,16.59,9.67,25.36a120.49,120.49,0,0,1,4.09,26.76.66.66,0,0,1-1.31.07,155.4,155.4,0,0,0-11.06-45.35c-.85-2.07-1.7-4.23-2.69-6.13a.74.74,0,0,1,1.3-.71Z"/><path class="cls-4" d="M298.17,747.8c-3.49-2.27-7.94-2.93-11.89-4.13-4.3-.87-9.34-2.66-10.83-7.29a.22.22,0,0,1,.31-.26c3.06,1.09,6,1.54,8.8,3.07,4.63,2.68,10.25,4.18,13.9,8.33a.2.2,0,0,1-.29.28Z"/><path class="cls-4" d="M298.78,747.46c-.25-4.47,2.76-8.23,4.38-12.13,1-2.35,2.82-3.72,4.24-5.88a.23.23,0,0,1,.38,0,6,6,0,0,1,.34,5.1c-.54,2-2.13,3.43-3.38,4.86-1.09,1.3-2.19,2.54-3.19,3.84a12.29,12.29,0,0,0-2.37,4.25.21.21,0,0,1-.4,0Z"/><path class="cls-4" d="M302,756.89a142.47,142.47,0,0,1-16.77-4.25c-2.75-.89-5.65-1.53-8.18-3.1s-5.25-3.48-6.34-6.45a.21.21,0,0,1,.29-.25c2.57,1.32,5.18,2,7.81,3.11,3.91,1.6,7.52,3.91,11.47,5.45,3.92,1.77,7.87,3.44,11.83,5.1a.2.2,0,0,1-.11.39Z"/><path class="cls-4" d="M302.53,756.64s0,0,0-.11-.16-.08-.21-.08.31-.37.39-.48a80.19,80.19,0,0,0,7.64-13.06c1.22-2.95,3.28-5.12,4.7-8a.22.22,0,0,1,.39,0,6.09,6.09,0,0,1,.68,3.61c-.13,3.58-2.21,6.45-4.43,9a60.31,60.31,0,0,1-4.32,5,39.89,39.89,0,0,1-4.56,4.16c-.19.1-.41.35-.64.09s.42-.5.37-.11Z"/><path class="cls-4" d="M304.1,764.5a27,27,0,0,1-9.29,2.45c-1.62.13-3.32.52-4.92-.05a7.38,7.38,0,0,1-4.22-3,.25.25,0,0,1,.17-.37,15.2,15.2,0,0,1,6.86-.25,28.07,28.07,0,0,0,6.67.91,44.6,44.6,0,0,0,4.62,0,.2.2,0,0,1,.11.38Z"/><path class="cls-4" d="M303.92,764.16a47.37,47.37,0,0,1,6.4-6.5c2.29-2.4,4.75-3.9,8.3-3.66a.25.25,0,0,1,.23.33c-1.29,3.32-3.71,4.81-6.74,6-2.36,1.22-5.64,2.89-7.93,4.15a.2.2,0,0,1-.26-.3Z"/><path class="cls-4" d="M305.61,771.64a26.42,26.42,0,0,1-4.6,5.29c-.83.78-1.44,1.85-2.49,2.24a9.41,9.41,0,0,1-3.61.73.27.27,0,0,1-.28-.25,5.24,5.24,0,0,1,1.52-3.69c.77-.94,2-1.16,3-1.66,2-1,4.15-1.82,6.13-2.93a.21.21,0,0,1,.3.27Z"/><path class="cls-4" d="M306.33,771a19.32,19.32,0,0,0,4.69-1.24c.75-.27,1.42-.93,2.27-.79a4.52,4.52,0,0,1,2.82,1.31.32.32,0,0,1,.05.38,4.83,4.83,0,0,1-2.09,2.23c-.78.46-1.74.09-2.64,0a10.21,10.21,0,0,1-5.21-1.54.22.22,0,0,1,.11-.39Z"/><path class="cls-4" d="M182,765c-13.92,16.79-25.66,35.76-33.32,56.24a.65.65,0,0,1-1.24-.42c5.65-17.1,14.68-32.95,25.48-47.31A104.24,104.24,0,0,1,181,763.9a.74.74,0,1,1,1,1.07Z"/><path class="cls-4" d="M174.06,773.63c5.19-3.37,11.78-2.79,17.62-3.86,2.66-.46,5.81-.21,8.48-.41.6,0,1.17-.16,1.87-.17a.22.22,0,0,1,.22.2c-1.31,2.34-4.2,3.5-6.68,4.06-3.5.72-7.37-.18-10.91-.19-3.49-.17-7.09-.48-10.43.73a.2.2,0,0,1-.17-.36Z"/><path class="cls-4" d="M173.33,773.21c.33-5.78-2.5-11.19-4.33-16.56-1.74-4.11-3.47-8.32-3.29-12.9a13.32,13.32,0,0,1,.78-4.6.21.21,0,0,1,.27-.13.22.22,0,0,1,.13.14c.59,1.41,1,2.73,1.59,4.11a61.48,61.48,0,0,1,3.57,12.44c1,4.27,2.15,8.68,2.24,13.14a12.94,12.94,0,0,1-.57,4.46.2.2,0,0,1-.39-.1Z"/><path class="cls-4" d="M166.61,783.54q9.55-.46,19.12-.73c6.41-.52,12.83-.47,19,1.52a.21.21,0,0,1,0,.4,34.06,34.06,0,0,1-14.36,1.77c-2.77-.33-6.74-.67-9.55-.9-4.62-.46-9.7-1-14.28-1.66a.2.2,0,0,1,0-.4Z"/><path class="cls-4" d="M166.5,783.5a.27.27,0,0,1-.2.26c-.31,0-.4-.36-.55-.55s-.7-1.32-.88-1.68c-2.48-5.11-5.08-10.67-7.58-15.74a80.9,80.9,0,0,1-7.9-18.21c0-1.27,3.78,3.08,4,3.42a31.2,31.2,0,0,1,5.1,8.76l1.71,4.76c1.17,3.14,2.25,6.32,3.25,9.51.76,2.47,2,6.53,2.73,9l.11.28.05.1s0,0-.14,0a.15.15,0,0,0-.12.08v0s0,0,0,0c0-.27.42-.22.4,0Z"/><path class="cls-4" d="M161.71,792.13a43.49,43.49,0,0,0,9.36,3.14c1.55.34,3.18.21,4.69.73a32.93,32.93,0,0,1,4.67,1.93.24.24,0,0,1,.07.4,7.85,7.85,0,0,1-5.35,1.63c-1.85,0-3.47-1-5.08-1.65a28,28,0,0,1-8.59-5.85.21.21,0,0,1,.23-.33Z"/><path class="cls-4" d="M161.4,792.34c-1.46-3.39-4.48-5.77-7.27-8.07-2.78-2.48-6.17-4.13-8.93-6.62a24.41,24.41,0,0,1-4.87-6,.22.22,0,0,1,.1-.29,21.71,21.71,0,0,1,10.19,5.48c3.11,3.21,6.46,6.25,8.9,10.06a12.9,12.9,0,0,1,2.27,5.35.2.2,0,0,1-.39.08Z"/><path class="cls-4" d="M157.75,800.25a59.5,59.5,0,0,1,3,6.31c.43,1.05,1.23,2,1.25,3.1a13.49,13.49,0,0,1-.41,3.71.12.12,0,0,1-.09.09,3,3,0,0,1-2.15-1.06,6.18,6.18,0,0,1-1.17-1.56c-.64-1.08-.42-2.35-.54-3.51-.09-.86-.2-2.61-.22-3.48,0-1.16-.06-2.32,0-3.5a.21.21,0,0,1,.39-.1Z"/><path class="cls-4" d="M156.71,799.83c-2.16-.2-5.22-.45-7.34-.7-1.21-.14-2.5.09-3.59-.46a8.48,8.48,0,0,1-3.18-2.45.28.28,0,0,1,0-.38,5.41,5.41,0,0,1,2.07-.88,6.94,6.94,0,0,1,1.95-.19c1.28,0,2.36.79,3.51,1.26.55.21,8,3.48,6.54,3.8Z"/><polygon class="cls-4" points="300.83 931 300.83 950.2 298.53 950.2 229.85 950.2 227.55 950.2 227.55 931 300.83 931"/><polygon class="cls-2" points="298.53 950.16 293.26 1017.07 235.12 1017.07 229.85 950.16 298.53 950.16"/><polyline class="cls-13" points="298.3 953.09 293.26 1017.07 235.12 1017.07 230.08 953.13"/></svg>