<svg xmlns="http://www.w3.org/2000/svg" xmlns:xlink="http://www.w3.org/1999/xlink" viewBox="0 0 1200 1200"><defs><style>.cls-1{isolation:isolate;}.cls-2{fill:#ebe9f0;}.cls-24,.cls-3{fill:#fdd24c;stroke:#c69a1e;}.cls-11,.cls-12,.cls-13,.cls-14,.cls-15,.cls-16,.cls-17,.cls-18,.cls-19,.cls-20,.cls-21,.cls-24,.cls-3,.cls-4,.cls-5,.cls-6{stroke-miterlimit:10;}.cls-3{stroke-width:3px;}.cls-4,.cls-7{fill:#99d9f6;}.cls-11,.cls-12,.cls-13,.cls-14,.cls-15,.cls-16,.cls-17,.cls-18,.cls-19,.cls-20,.cls-4,.cls-5{stroke:#3d9fc1;}.cls-4,.cls-6{stroke-width:4px;}.cls-11,.cls-12,.cls-13,.cls-14,.cls-15,.cls-16,.cls-17,.cls-18,.cls-19,.cls-20,.cls-21,.cls-35,.cls-5{fill:none;}.cls-11,.cls-12,.cls-13,.cls-14,.cls-15,.cls-16,.cls-17,.cls-18,.cls-19,.cls-20,.cls-21,.cls-25,.cls-5{stroke-linecap:round;}.cls-11,.cls-12,.cls-13,.cls-14,.cls-15,.cls-16,.cls-17,.cls-18,.cls-19,.cls-20,.cls-5{stroke-width:2.22px;}.cls-5{stroke-dasharray:2.22 24.42;}.cls-6{fill:#e4f7ff;stroke:#81c4db;}.cls-8{fill:#3d9fc1;}.cls-9{fill:#baecfa;}.cls-10{fill:#d3edf2;}.cls-10,.cls-26{mix-blend-mode:soft-light;}.cls-12{stroke-dasharray:2.25 24.79;}.cls-13{stroke-dasharray:2.45 26.92;}.cls-14{stroke-dasharray:2.26 24.91;}.cls-15{stroke-dasharray:2.29 25.2;}.cls-16{stroke-dasharray:2.35 25.86;}.cls-17{stroke-dasharray:2.24 24.62;}.cls-18{stroke-dasharray:2.18 23.95;}.cls-19{stroke-dasharray:2.13 23.39;}.cls-20{stroke-dasharray:2.07 22.74;}.cls-21{stroke:#fff;}.cls-21,.cls-25{stroke-width:1.11px;}.cls-22,.cls-25{fill:#80bfa3;}.cls-23{fill:#55a584;}.cls-24{stroke-width:2.78px;}.cls-25{stroke:#55a584;stroke-linejoin:round;}.cls-26{opacity:0.7;}.cls-27{fill:url(#linear-gradient);}.cls-28{fill:url(#linear-gradient-2);}.cls-29{fill:url(#linear-gradient-3);}.cls-30{fill:url(#linear-gradient-4);}.cls-31{fill:url(#linear-gradient-5);}.cls-32{fill:url(#linear-gradient-6);}.cls-33{fill:url(#linear-gradient-7);}.cls-34{fill:url(#linear-gradient-8);}</style><linearGradient id="linear-gradient" x1="389.72" y1="839.26" x2="974.89" y2="276.6" gradientUnits="userSpaceOnUse"><stop offset="0" stop-color="#c57db2"/><stop offset="1" stop-color="#56bc80"/></linearGradient><linearGradient id="linear-gradient-2" x1="382.35" y1="831.6" x2="967.52" y2="268.94" xlink:href="#linear-gradient"/><linearGradient id="linear-gradient-3" x1="405.31" y1="855.48" x2="990.48" y2="292.82" xlink:href="#linear-gradient"/><linearGradient id="linear-gradient-4" x1="454.15" y1="906.27" x2="1039.32" y2="343.6" xlink:href="#linear-gradient"/><linearGradient id="linear-gradient-5" x1="328.59" y1="775.68" x2="913.75" y2="213.02" xlink:href="#linear-gradient"/><linearGradient id="linear-gradient-6" x1="257.65" y1="701.91" x2="842.82" y2="139.25" xlink:href="#linear-gradient"/><linearGradient id="linear-gradient-7" x1="283.99" y1="729.3" x2="869.16" y2="166.64" xlink:href="#linear-gradient"/><linearGradient id="linear-gradient-8" x1="561.91" y1="1018.33" x2="1147.07" y2="455.67" xlink:href="#linear-gradient"/></defs><g class="cls-1"><g id="Layer_1" data-name="Layer 1"><path class="cls-2" d="M1071.07,789.69c22.79-57.61,9-132.7-43.4-165.71-22-13.84-49.93-20.53-64.83-41.82-33.06-52.56,30.69-147.57,22.66-216C989,250,948,198.31,806.09,188.13s-233.52,74.94-265.74,93.75C469.74,323.1,377.87,279.2,299,300.64,228.83,319.7,179.51,396.19,191.1,468c9.45,58.49,53.5,112.47,41.85,170.56-30.9,106-199.69,160.38-60,285.72,73,51.6,168,33.79,252.07,38.61,60.37,3.67,119.25,19.28,178.35,32.12,120.09,32,253.31,27.64,339.43-71.71C990.56,879.05,1045.38,854.63,1071.07,789.69Z"/><path class="cls-3" d="M253.63,902.06c-47,33.32,249.89-270.26,249.89-270.26S652.57,689.07,606.68,735c0,0-174.1,176.43-217.41,201.2s81.47-90.8,45.92-67.28,48-75.32,25.43-60.56-14.67-13.34,1-31.65c32-32,51.93-55.47,71.49-73.35l-.69-.68c-17.67,19-47.63,49.34-71.3,74.62-102.66,109.64-44.42,11.79-61.8,21.3s2.69-24.95-5.76-16.76S300.64,868.75,253.63,902.06Z"/><path class="cls-4" d="M592.71,889.31l-15-14.95c40.81-36.27,98.38-104.57,100.48-155.26L787.44,609.88a26.38,26.38,0,0,0,37.3,0l4.6,4.6h0a32.87,32.87,0,0,1,0,46.49L724.72,765.59Z"/><path class="cls-5" d="M809.51,607.56c15.61,15.61,26.88,29.28,6.29,54.47l-218.87,216-6-6c62.24-62.78,107.24-123.39,92.11-173.87Z"/><path class="cls-4" d="M349.74,646.34l14.95,14.95C401,620.49,469.26,562.92,520,560.82L630,450.74a25.14,25.14,0,0,1,0-35.56l-5.47-5.47h0a32.87,32.87,0,0,0-46.49,0L473.46,514.33Z"/><path class="cls-5" d="M630.51,428.56c-18-12.55-31.12-28.42-54.47-6.29L360,641.14l6,6C428.77,584.89,489.38,539.89,539.86,555Z"/><path class="cls-4" d="M460.74,685.71H632.35a0,0,0,0,1,0,0v0a11.89,11.89,0,0,1-11.89,11.89H472.63a11.89,11.89,0,0,1-11.89-11.89v0a0,0,0,0,1,0,0Z" transform="translate(649.15 -183.88) rotate(45)"/><path class="cls-6" d="M809.07,622.84,704.64,700.43l-80.85,60.06L478.88,615.59l41.49-55.84,18.58-25,77.59-104.43c9.7-13.07,23.72-28.24,41.14-43.55l1.15-1c40.88-35.66,100-72,166-84.94,6.6-1.3,13.29-2.49,20-3.59,51.07-8.38,101.5-11,105-7.56s-.44,48.83-10,102.45c-1.07,6-2.22,12.18-3.44,18.38-13.16,66.92-49.53,128.93-84.79,170.91C836.53,599.19,821.77,613.4,809.07,622.84Z"/><path class="cls-4" d="M646.57,462.36l-90,90L539,534.74l77.58-104.43c9.71-13.07,23.73-28.23,41.15-43.55a64.07,64.07,0,0,1-11.11,75.6Z"/><path class="cls-4" d="M809.06,622.84,704.63,700.43l-17-17.06,90-90a64.08,64.08,0,0,1,73.91-12C836.53,599.19,821.77,613.4,809.06,622.84Z"/><path class="cls-7" d="M813.36,488.83A63.08,63.08,0,1,1,858,470.36,62.77,62.77,0,0,1,813.36,488.83Z"/><path class="cls-8" d="M813.36,364.54a61.15,61.15,0,1,1-43.26,17.89,61,61,0,0,1,43.26-17.89m0-4a65.08,65.08,0,1,0,46.08,19.06,64.74,64.74,0,0,0-46.08-19.06Z"/><path class="cls-9" d="M813.36,480.88a55.2,55.2,0,1,1,30.79-101,55.75,55.75,0,0,1,5.78,4.48c.83.73,1.66,1.51,2.47,2.32a55,55,0,0,1,1.35,76.64c-.43.47-.89.95-1.36,1.42-1.23,1.23-2.52,2.4-3.82,3.48A55.22,55.22,0,0,1,813.36,480.88Z"/><path class="cls-8" d="M813.36,372.48a52.89,52.89,0,0,1,35.25,13.35c.81.71,1.6,1.46,2.38,2.24a53.19,53.19,0,0,1,1.3,73.87c-.42.47-.86.92-1.31,1.37-1.19,1.18-2.42,2.31-3.68,3.35a53.21,53.21,0,1,1-33.94-94.18m0-4h0a57.2,57.2,0,1,0,36.48,101.24c1.35-1.11,2.68-2.33,4-3.6.54-.54,1-1,1.43-1.5a57.16,57.16,0,0,0-1.42-79.38c-.84-.83-1.7-1.64-2.56-2.41a59.62,59.62,0,0,0-6-4.63,56.93,56.93,0,0,0-31.91-9.72Z"/><path class="cls-10" d="M851,463.31c-1.19,1.18-2.42,2.31-3.68,3.35A44.9,44.9,0,0,1,843,381.51a52.94,52.94,0,0,1,5.57,4.32c.81.71,1.6,1.46,2.38,2.24a53.19,53.19,0,0,1,1.3,73.87C851.87,462.41,851.43,462.86,851,463.31Z"/><path class="cls-4" d="M939.71,392.09h0a318.17,318.17,0,0,0-94.87-94.86v0c51.07-8.38,101.5-11,105-7.56S949.3,338.47,939.71,392.09Z"/><path class="cls-11" d="M849.57,567.49l-.78.79-1.09-.22"/><path class="cls-12" d="M823.08,565.44c-14.55.1-27.23,3.69-40.39,11.41l-95.07,95.07"/><polyline class="cls-11" points="678.86 680.69 678.07 681.47 678.86 682.26"/><polyline class="cls-11" points="694.45 697.85 695.23 698.63 694.32 699.26"/><line class="cls-13" x1="672.1" y1="714.46" x2="634.73" y2="740.02"/><polyline class="cls-11" points="623.63 747.61 622.71 748.24 621.92 747.46"/><line class="cls-14" x1="604.31" y1="729.84" x2="497.84" y2="623.37"/><polyline class="cls-11" points="489.03 614.56 488.25 613.78 488.92 612.9"/><line class="cls-15" x1="504.29" y1="592.92" x2="530.13" y2="559.33"/><polyline class="cls-11" points="537.82 549.34 538.49 548.46 539.28 549.25"/><polyline class="cls-11" points="555.15 565.12 555.94 565.91 556.72 565.12"/><path class="cls-16" d="M575,546.83l93.35-93.34c8-17.44,8.85-34,6.27-51.4"/><path class="cls-11" d="M672.23,389.39,672,388.3l.79-.78"/><path class="cls-17" d="M691.81,372c44.2-31.37,119.66-61.28,153.06-64.29A455.83,455.83,0,0,1,931,393.81c-3.25,36-39.15,122.39-73.29,164.47"/><circle class="cls-8" cx="650.71" cy="412.41" r="3.11"/><circle class="cls-8" cx="554.43" cy="536.05" r="3.11"/><circle class="cls-8" cx="827.1" cy="588.81" r="3.11"/><circle class="cls-8" cx="703.46" cy="685.08" r="3.11"/><path class="cls-4" d="M727,512.09h0a10.73,10.73,0,0,0-15.17,0L591.51,632.38l-123.72,132,6.87,6.87,132-123.72L727,527.26A10.74,10.74,0,0,0,727,512.09Z"/><line class="cls-5" x1="718" y1="521.05" x2="476.24" y2="762.81"/><path class="cls-11" d="M866.42,302.37l-.93-.61,1.11-.09"/><line class="cls-18" x1="890.47" y1="299.73" x2="930.62" y2="296.45"/><polyline class="cls-11" points="942.55 295.48 943.66 295.39 943.54 296.49"/><line class="cls-19" x1="940.99" y1="319.75" x2="936.71" y2="358.85"/><path class="cls-11" d="M935.43,370.48l-.12,1.1-.6-.92"/><path class="cls-20" d="M921.26,352.32a254.91,254.91,0,0,0-45.52-43.42"/><line class="cls-21" x1="836.16" y1="407.72" x2="790.61" y2="407.72"/><line class="cls-21" x1="845.12" y1="427.11" x2="784.46" y2="427.11"/><line class="cls-21" x1="839.55" y1="446.51" x2="792.84" y2="446.51"/><path class="cls-22" d="M777.94,532.66a1.66,1.66,0,0,1-1.18-.49l-69.58-69.58a1.66,1.66,0,0,1,0-2.35l10.14-10.14a1.65,1.65,0,0,1,2.35,0l69.59,69.58a1.66,1.66,0,0,1,0,2.35l-10.14,10.14A1.64,1.64,0,0,1,777.94,532.66Z"/><path class="cls-23" d="M718.5,451.27l69.58,69.59L777.94,531l-69.58-69.59,10.14-10.14m0-3.33a3.32,3.32,0,0,0-2.36,1L706,459.06a3.33,3.33,0,0,0,0,4.71l69.59,69.58a3.31,3.31,0,0,0,4.7,0l10.14-10.14a3.31,3.31,0,0,0,0-4.71l-69.58-69.58a3.32,3.32,0,0,0-2.35-1Z"/><path class="cls-3" d="M342.59,867.22c5-1.72,6.48,4.95-12.4,16.84S335.7,869.59,342.59,867.22Z"/><path class="cls-24" d="M413.44,844.7c6.51-3.09,7.15,5-18.55,23.43S404.42,849,413.44,844.7Z"/><path class="cls-24" d="M584.72,779.18c.91-4.38-4-4.53-11.32,13S583.46,785.26,584.72,779.18Z"/><path class="cls-24" d="M459.35,654.82c2.89-3.42-1.35-5.89-16.14,6S455.35,659.56,459.35,654.82Z"/><path class="cls-25" d="M683.38,289.36l-12.83,12a2.06,2.06,0,0,0,1.08,3.55h.07a2.28,2.28,0,0,0,2-.56L717.77,263a2,2,0,0,0-.23-3.19h0a2.26,2.26,0,0,0-2.83.2l-18.28,17.12"/><path class="cls-25" d="M269.57,746.13l18.15-17.45a2,2,0,0,0-.27-3.18h0a2.26,2.26,0,0,0-2.84.24l-18,17.41"/><path class="cls-25" d="M811.48,779.79l16-16.71a2,2,0,0,0,0-3.19h0a2.26,2.26,0,0,0-2.84,0l-71,73.82a2.06,2.06,0,0,0,.8,3.62l.07,0a2.28,2.28,0,0,0,2-.41l34.92-36.34"/><path class="cls-25" d="M683.38,289.36l-12.83,12a2.06,2.06,0,0,0,1.08,3.55h.07a2.28,2.28,0,0,0,2-.56L717.77,263a2,2,0,0,0-.23-3.19h0a2.26,2.26,0,0,0-2.83.2l-18.28,17.12"/><path class="cls-25" d="M269.57,746.13l18.15-17.45a2,2,0,0,0-.27-3.18h0a2.26,2.26,0,0,0-2.84.24l-18,17.41"/><path class="cls-25" d="M811.48,779.79l16-16.71a2,2,0,0,0,0-3.19h0a2.26,2.26,0,0,0-2.84,0l-71,73.82a2.06,2.06,0,0,0,.8,3.62l.07,0a2.28,2.28,0,0,0,2-.41l34.92-36.34"/><g class="cls-26"><path class="cls-27" d="M951.15,288.24c-.63-.63-2.24-2.23-17-2.07-10.49.07-24.82,1-40.35,2.59l-.18,0-2.37.24c-13,1.33-26.47,3.06-39.48,5.06l-2.09.32-1.19.19-4,.65c-6.92,1.13-13.66,2.34-20,3.59-76.82,15.05-136.8,59.26-166.2,84.78h0l-.07.07c-.23.19-.47.39-.69.59l-.54.48-.31.28-.27.23q-7.51,6.62-14.33,13.3l-.58.56c-.27.26-.52.52-.79.79-2.54,2.51-5,5-7.37,7.53-1.34,1.42-2.64,2.84-3.92,4.25L626,408.3a34.87,34.87,0,0,0-49.31,0L472,513,347,646.39l17.81,17.81,1.4-1.58c40.15-45.17,103-94.49,149.16-99.45l-39.09,52.61,11.12,11.11A13.89,13.89,0,0,0,488.62,645C466,668.14,419.1,716.44,373,764.7c-37.4,39.12-67,70.57-87.88,93.46-40.27,44.08-38.87,45.72-37.52,47.3s3.29.39,6.93-2.19c45-31.91,126-106.95,139.15-119.53-.23.77-.49,1.6-.73,2.35-1.83,5.8-3.9,12.37-.94,14.81,2.2,1.8,5.64.27,8-1a3.73,3.73,0,0,1,1.21-.48c.64,1.34-.9,7.41-1.92,11.46-2.27,9-4.41,17.43-.07,19.8,4.15,2.27,13.67-1.08,51.12-39.9-4.76,9.11-6.92,17.86-3.71,21.52,2.59,2.94,7.57,2,14.81-2.7.57-.37,1-.64,1.37-.82-1.6,4.18-9.75,16-16.45,25.73-18.19,26.42-23.75,35.73-20.79,38.74,1.61,1.64,4.64.74,10.45-3.1,1.12-.74,2-1.29,2.71-1.7-3.85,5.15-14.53,16.54-24.15,26.81-29.42,31.4-38.16,41.71-35.53,45a2.37,2.37,0,0,0,2,.88c1.78,0,4.57-1.18,9-3.69,18.06-10.34,60.2-47.38,125.23-110.11,31.92-30.79,61.78-60.5,78.53-77.29a13.84,13.84,0,0,0,17.54.78l11.07,11.07,1.21,1.22,52.22-38.79c-5.34,46.06-54.41,108.57-99.38,148.54l-1.58,1.4,17.81,17.81L726.13,767,830.75,662.38a34.87,34.87,0,0,0,0-49.31l-3.23-3.23q1.59-1.5,3.18-3l.46-.44,0,0c7.18-7,14.52-15,21.81-23.65l1.63-1.94h0c21.06-25.44,67.71-89.08,83.6-169.88,1.12-5.66,2.17-11.29,3.16-16.76h0l.3-1.65C948.84,352.4,956.51,293.6,951.15,288.24Z"/><path class="cls-28" d="M342.11,865.82c-5.45,1.88-19.94,16.4-20.41,20.45a2,2,0,0,0,.89,2,2.15,2.15,0,0,0,1.2.34c1.25,0,3.26-.83,7.19-3.31,17.6-11.09,16.7-16.68,16-18.13S344.31,865.06,342.11,865.82Z"/><path class="cls-29" d="M386.14,874.6c1.23,0,3.55-1,9.56-5.34,16.23-11.67,24.87-21.37,22.54-25.31-.33-.56-1.7-2.26-5.39-.51-6.36,3-28.48,24.85-28.57,29.26a1.77,1.77,0,0,0,.94,1.67A1.89,1.89,0,0,0,386.14,874.6Z"/><path class="cls-30" d="M584.5,775.43c-3.15-1-7.66,4.93-12.38,16.2-2.2,5.27-2.22,6.69-1.44,7.58a1.64,1.64,0,0,0,1.26.57,2.12,2.12,0,0,0,.49-.06c3.26-.86,12.81-16.2,13.65-20.25C586.59,777,585.6,775.77,584.5,775.43Z"/><path class="cls-31" d="M438.76,667a2.38,2.38,0,0,0,.49.05c4.11,0,18.61-8.33,21.16-11.36,1.62-1.91,1.34-3.48.53-4.3-2.3-2.36-9.08.69-18.6,8.35-4.45,3.58-5.13,4.82-4.87,6A1.7,1.7,0,0,0,438.76,667Z"/><path class="cls-32" d="M671.59,305.49a3.29,3.29,0,0,0,.54.05,2.8,2.8,0,0,0,1.92-.76l44.1-41.37a2.64,2.64,0,0,0,.83-2.09,2.61,2.61,0,0,0-1.12-1.95,2.81,2.81,0,0,0-3.53.24l-18.28,17.13a.54.54,0,0,0,0,.78h0L683.78,289a.55.55,0,0,0-.78,0l-12.83,12a2.58,2.58,0,0,0-.74,2.63A2.72,2.72,0,0,0,671.59,305.49Z"/><path class="cls-33" d="M267,743.55h0l2.19,2.2a.55.55,0,0,0,0,.77.52.52,0,0,0,.4.17.58.58,0,0,0,.39-.15l18.14-17.46a2.57,2.57,0,0,0,.8-2.1,2.6,2.6,0,0,0-1.14-1.93,2.81,2.81,0,0,0-3.53.3l-18,17.41a.55.55,0,0,0,0,.78A.56.56,0,0,0,267,743.55Z"/><path class="cls-34" d="M824.32,759.48l-71,73.77a2.57,2.57,0,0,0-.94,2.56,2.72,2.72,0,0,0,2,2.05,3.07,3.07,0,0,0,.74.1,2.87,2.87,0,0,0,1.82-.66L791.9,801a.56.56,0,0,0,0-.79h0l19.2-20a.56.56,0,0,0,.79,0l16-16.66a2.59,2.59,0,0,0,0-4A2.82,2.82,0,0,0,824.32,759.48Z"/></g><rect class="cls-35" width="20" height="20"/></g></g></svg>